<svg width="70" height="9" viewBox="0 0 70 9" fill="none" xmlns="http://www.w3.org/2000/svg">
<g clip-path="url(#clip0_17_191)">
<path d="M62.4001 8.19997C60.8001 8.19997 59.3 7.69997 58 6.59997C57.3 5.99997 56.7001 5.39997 56 4.79997C55.5 4.39997 55 3.99997 54.5 3.59997C53.7001 3.09997 52.8 3.09997 52.1 3.59997C51.4 3.99997 50.8 4.49997 50.2001 5.09997C48.8 6.29997 47.4001 7.69997 45.5 8.09997C43.3 8.59997 41.3 8.09997 39.5 6.59997C38.8 5.99997 38.1 5.29997 37.3 4.59997C36.9 4.29997 36.5 3.99997 36.1 3.69997C35.2 3.09997 34.2001 2.99997 33.4001 3.59997C32.6001 4.09997 32 4.79997 31.2001 5.29997C30.3001 5.99997 29.4 6.79997 28.4 7.39997C25.9 8.79997 22.8 8.29997 20.5 6.29997C19.6 5.49997 18.7001 4.59997 17.7001 3.79997C16.7001 2.99997 15.6 2.99997 14.5 3.79997C13.6 4.49997 12.8 5.29997 11.9 5.99997C9.30005 8.39997 6.10005 8.99997 3.40005 7.39997C2.30005 6.79997 1.40005 5.79997 0.500049 4.99997C-0.0999512 4.39997 -0.0999512 3.39997 0.500049 2.79997C1.00005 2.19997 1.80005 2.09997 2.50005 2.59997C3.00005 2.89997 3.40005 3.39997 3.90005 3.79997C5.70005 5.39997 7.40005 5.49997 9.30005 3.89997C10.2 3.19997 11 2.39997 12 1.69997C14.8 -0.500027 17.4 -0.400027 20.1 1.79997C21 2.49997 21.8001 3.19997 22.6 3.99997C24.3001 5.49997 26.1 5.49997 27.8 4.09997C28.7 3.29997 29.5 2.49997 30.4 1.79997C31.5 0.899973 32.7 0.299973 34.1 0.199973C35.9 -2.68891e-05 37.4 0.699973 38.8 1.89997C39.7001 2.69997 40.5 3.49997 41.5 4.29997C42.9001 5.49997 44.5 5.59997 46.1 4.49997C46.9 3.89997 47.6 3.19997 48.3 2.59997C49.6 1.39997 51 0.499973 52.7001 0.299973C54.8 -2.68966e-05 56.4001 0.999973 57.9001 2.29997C58.5 2.79997 59.1001 3.49997 59.7001 3.99997C61.5 5.59997 63.4 5.59997 65.3 3.99997C65.8 3.59997 66.3 3.09997 66.8 2.59997C67.7001 1.89997 68.6 1.89997 69.2 2.49997C69.9 3.29997 69.8 4.19997 68.9 4.99997C68.2001 5.59997 67.5 6.29997 66.7 6.89997C65.5 7.69997 64 8.19997 62.4001 8.19997Z" fill="#CEBD88"/>
</g>
<defs>
<clipPath id="clip0_17_191">
<rect width="69.6" height="8.3" fill="white"/>
</clipPath>
</defs>
</svg>
